<?xml version="1.0" encoding="utf-8" standalone="no"?>
<svg xmlns="http://www.w3.org/2000/svg" xmlns:xlink="http://www.w3.org/1999/xlink" width="500" height="135">
	<!-- Created by: KasaEnergyLogger Version 2.20210429-2 Built on: Apr 29 2021 at 09:09:20 -->
	<style>
		text { font-family: sans-serif; font-size: 12px; fill: black; }
		line { stroke: black; }
		polygon { fill-opacity: 0.5; }
	@media only screen and (prefers-color-scheme: dark) {
		text { fill: grey; }
		line { stroke: grey; }
	}
	</style>
	<rect style="fill-opacity:0;stroke:grey;stroke-width:2" width="500" height="135" />
	<text x="78" y="12">Surface Dock 2</text>
	<text style="text-anchor:end" x="470" y="12">2021-05-03 12:09:58</text>
	<text style="fill:blue;text-anchor:middle" x="12" y="67" transform="rotate(270 12,67)">Amps (0.29)</text>
	<text style="fill:green;text-anchor:middle" x="24" y="67" transform="rotate(270 24,67)">Watts (27)</text>
	<text style="fill:OrangeRed" text-anchor="middle" x="36" y="67" transform="rotate(270 36,67)">Total WH (1528 - 2106)</text>
	<!-- Watts -->
	<polygon style="fill:lime;stroke:green" points="79,120 78,59 79,65 80,66 81,62 82,60 83,32 84,41 85,46 86,46 87,40 88,25 89,65 90,65 91,68 92,61 93,77 94,78 95,94 96,70 97,71 98,66 99,57 100,67 101,60 102,88 103,89 104,95 105,96 106,89 107,94 108,97 109,87 110,97 111,97 112,89 113,95 114,97 115,89 116,95 117,96 118,85 119,97 120,94 121,86 122,94 123,96 124,89 125,97 126,95 127,87 128,95 129,95 130,88 131,95 132,95 133,86 134,97 135,97 136,88 137,95 138,97 139,90 140,95 141,95 142,88 143,97 144,95 145,87 146,97 147,94 148,87 149,98 150,96 151,89 152,96 153,93 154,89 155,97 156,96 157,88 158,97 159,96 160,87 161,94 162,95 163,87 164,95 165,94 166,87 167,98 168,96 169,89 170,96 171,90 172,88 173,94 174,95 175,90 176,94 177,93 178,89 179,97 180,89 181,88 182,96 183,96 184,88 185,96 186,96 187,86 188,95 189,94 190,87 191,98 192,96 193,88 194,95 195,96 196,91 197,96 198,94 199,90 200,93 201,92 202,80 203,95 204,86 205,76 206,94 207,93 208,91 209,95 210,95 211,89 212,95 213,94 214,89 215,97 216,97 217,89 218,95 219,96 220,87 221,96 222,95 223,86 224,94 225,97 226,87 227,95 228,97 229,87 230,95 231,95 232,97 233,97 234,97 235,91 236,95 237,95 238,86 239,91 240,83 241,66 242,90 243,91 244,69 245,74 246,52 247,63 248,94 249,94 250,88 251,95 252,94 253,87 254,93 255,94 256,85 257,92 258,74 259,54 260,40 261,67 262,85 263,82 264,77 265,52 266,49 267,55 268,45 269,54 270,53 271,63 272,69 273,64 274,72 275,68 276,65 277,44 278,59 279,95 280,89 281,96 282,95 283,87 284,93 285,95 286,90 287,98 288,96 289,89 290,97 291,95 292,87 293,96 294,96 295,86 296,93 297,85 298,82 299,87 300,64 301,55 302,55 303,59 304,60 305,60 306,60 307,58 308,61 309,57 310,58 311,59 312,58 313,60 314,60 315,63 316,50 317,44 318,43 319,45 320,47 321,45 322,43 323,44 324,44 325,43 326,42 327,42 328,46 329,45 330,42 331,40 332,44 333,58 334,57 335,59 336,61 337,44 338,48 339,60 340,44 341,58 342,44 343,42 344,46 345,45 346,44 347,44 348,44 349,46 350,46 351,43 352,44 353,44 354,42 355,41 356,40 357,49 358,46 359,44 360,43 361,43 362,44 363,42 364,45 365,51 366,42 367,44 368,45 369,14 370,69 371,95 372,96 373,88 374,96 375,96 376,77 377,93 378,93 379,90 380,96 381,95 382,88 383,96 384,92 385,80 386,87 387,71 388,68 389,92 390,96 391,81 392,94 393,93 394,85 395,93 396,93 397,88 398,94 399,92 400,86 401,93 402,94 403,87 404,93 405,93 406,87 407,92 408,78 409,73 410,52 411,52 412,78 413,70 414,63 415,57 416,59 417,59 418,68 419,89 420,95 421,86 422,97 423,96 424,89 425,97 426,96 427,87 428,96 429,97 430,89 431,96 432,95 433,89 434,96 435,96 436,89 437,95 438,94 439,85 440,97 441,97 442,89 443,96 444,96 445,87 446,94 447,87 448,88 449,96 450,95 451,89 452,96 453,96 454,88 455,98 456,95 457,82 458,95 459,94 460,87 461,97 462,96 463,88 464,95 465,96 466,90 467,96 468,95 469,89 469,120" />
	<line x1="76" y1="14" x2="472" y2="14"/>
	<text style="fill:blue;text-anchor:end" x="76" y="19">0.44</text>
	<text style="fill:green" x="472" y="18">47</text>
	<line x1="76" y1="121" x2="472" y2="121"/>
	<text style="fill:blue;text-anchor:end" x="76" y="126">0</text>
	<text style="fill:green" x="472" y="125">0</text>
	<line x1="78" y1="14" x2="78" y2="121"/>
	<line x1="470" y1="14" x2="470" y2="121"/>
	<line style="stroke-dasharray:1" x1="76" y1="40" x2="472" y2="40" />
	<text style="fill:blue;text-anchor:end" x="76" y="44">0.33</text>
	<text style="fill:green" x="472" y="44">35</text>
	<line style="stroke-dasharray:1" x1="76" y1="66" x2="472" y2="66" />
	<text style="fill:blue;text-anchor:end" x="76" y="70">0.22</text>
	<text style="fill:green" x="472" y="70">23</text>
	<line style="stroke-dasharray:1" x1="76" y1="92" x2="472" y2="92" />
	<text style="fill:blue;text-anchor:end" x="76" y="96">0.11</text>
	<text style="fill:green" x="472" y="96">12</text>
	<line style="stroke-dasharray:1" x1="79" y1="14" x2="79" y2="123" />
	<text style="text-anchor:middle" x="79" y="133">12</text>
	<line style="stroke-dasharray:1" x1="91" y1="14" x2="91" y2="123" />
	<line style="stroke-dasharray:1" x1="103" y1="14" x2="103" y2="123" />
	<text style="text-anchor:middle" x="103" y="133">10</text>
	<line style="stroke-dasharray:1" x1="115" y1="14" x2="115" y2="123" />
	<line style="stroke-dasharray:1" x1="127" y1="14" x2="127" y2="123" />
	<text style="text-anchor:middle" x="127" y="133">8</text>
	<line style="stroke-dasharray:1" x1="139" y1="14" x2="139" y2="123" />
	<line style="stroke-dasharray:1" x1="151" y1="14" x2="151" y2="123" />
	<text style="text-anchor:middle" x="151" y="133">6</text>
	<line style="stroke-dasharray:1" x1="163" y1="14" x2="163" y2="123" />
	<line style="stroke-dasharray:1" x1="175" y1="14" x2="175" y2="123" />
	<text style="text-anchor:middle" x="175" y="133">4</text>
	<line style="stroke-dasharray:1" x1="187" y1="14" x2="187" y2="123" />
	<line style="stroke-dasharray:1" x1="199" y1="14" x2="199" y2="123" />
	<text style="text-anchor:middle" x="199" y="133">2</text>
	<line style="stroke-dasharray:1" x1="211" y1="14" x2="211" y2="123" />
	<line style="stroke:red" x1="223" y1="14" x2="223" y2="123" />
	<text style="text-anchor:middle" x="223" y="133">0</text>
	<line style="stroke-dasharray:1" x1="235" y1="14" x2="235" y2="123" />
	<line style="stroke-dasharray:1" x1="247" y1="14" x2="247" y2="123" />
	<text style="text-anchor:middle" x="247" y="133">22</text>
	<line style="stroke-dasharray:1" x1="259" y1="14" x2="259" y2="123" />
	<line style="stroke-dasharray:1" x1="271" y1="14" x2="271" y2="123" />
	<text style="text-anchor:middle" x="271" y="133">20</text>
	<line style="stroke-dasharray:1" x1="283" y1="14" x2="283" y2="123" />
	<line style="stroke-dasharray:1" x1="295" y1="14" x2="295" y2="123" />
	<text style="text-anchor:middle" x="295" y="133">18</text>
	<line style="stroke-dasharray:1" x1="307" y1="14" x2="307" y2="123" />
	<line style="stroke-dasharray:1" x1="319" y1="14" x2="319" y2="123" />
	<text style="text-anchor:middle" x="319" y="133">16</text>
	<line style="stroke-dasharray:1" x1="331" y1="14" x2="331" y2="123" />
	<line style="stroke-dasharray:1" x1="343" y1="14" x2="343" y2="123" />
	<text style="text-anchor:middle" x="343" y="133">14</text>
	<line style="stroke-dasharray:1" x1="355" y1="14" x2="355" y2="123" />
	<line style="stroke-dasharray:1" x1="367" y1="14" x2="367" y2="123" />
	<text style="text-anchor:middle" x="367" y="133">12</text>
	<line style="stroke-dasharray:1" x1="379" y1="14" x2="379" y2="123" />
	<line style="stroke-dasharray:1" x1="391" y1="14" x2="391" y2="123" />
	<text style="text-anchor:middle" x="391" y="133">10</text>
	<line style="stroke-dasharray:1" x1="403" y1="14" x2="403" y2="123" />
	<line style="stroke-dasharray:1" x1="415" y1="14" x2="415" y2="123" />
	<text style="text-anchor:middle" x="415" y="133">8</text>
	<line style="stroke-dasharray:1" x1="427" y1="14" x2="427" y2="123" />
	<line style="stroke-dasharray:1" x1="439" y1="14" x2="439" y2="123" />
	<text style="text-anchor:middle" x="439" y="133">6</text>
	<line style="stroke-dasharray:1" x1="451" y1="14" x2="451" y2="123" />
	<line style="stroke-dasharray:1" x1="463" y1="14" x2="463" y2="123" />
	<text style="text-anchor:middle" x="463" y="133">4</text>
	<polygon style="fill:red;stroke:red;fill-opacity:1;" points="75,121 81,118 81,124" />
	<!-- Amps -->
	<polyline style="fill:none;stroke:blue" points="79,54 80,58 81,53 82,52 83,27 84,36 85,39 86,40 87,36 88,28 89,53 90,53 91,55 92,53 93,62 94,64 95,76 96,59 97,58 98,54 99,53 100,54 101,51 102,72 103,73 104,79 105,77 106,74 107,80 108,80 109,73 110,80 111,80 112,73 113,80 114,80 115,73 116,78 117,79 118,72 119,80 120,78 121,74 122,79 123,79 124,74 125,79 126,79 127,74 128,78 129,78 130,73 131,80 132,78 133,73 134,80 135,79 136,74 137,79 138,80 139,74 140,78 141,79 142,73 143,79 144,79 145,74 146,80 147,78 148,73 149,79 150,79 151,74 152,79 153,79 154,73 155,78 156,79 157,72 158,79 159,78 160,72 161,79 162,79 163,73 164,78 165,77 166,72 167,79 168,79 169,73 170,79 171,75 172,72 173,79 174,79 175,73 176,77 177,78 178,73 179,79 180,74 181,73 182,79 183,79 184,72 185,79 186,78 187,74 188,78 189,77 190,72 191,79 192,79 193,73 194,79 195,79 196,73 197,78 198,78 199,73 200,77 201,77 202,69 203,79 204,71 205,65 206,78 207,78 208,73 209,79 210,79 211,73 212,78 213,78 214,73 215,79 216,79 217,73 218,78 219,79 220,72 221,78 222,78 223,73 224,78 225,77 226,73 227,79 228,79 229,72 230,79 231,79 232,79 233,79 234,79 235,75 236,79 237,79 238,72 239,76 240,67 241,56 242,75 243,76 244,60 245,62 246,51 247,54 248,79 249,78 250,74 251,78 252,78 253,71 254,77 255,78 256,73 257,78 258,63 259,47 260,32 261,50 262,69 263,67 264,66 265,45 266,44 267,46 268,39 269,46 270,47 271,53 272,59 273,53 274,61 275,58 276,55 277,39 278,50 279,80 280,74 281,80 282,80 283,74 284,79 285,79 286,73 287,80 288,80 289,74 290,79 291,79 292,74 293,80 294,80 295,72 296,77 297,71 298,70 299,74 300,54 301,48 302,48 303,52 304,52 305,52 306,52 307,50 308,52 309,50 310,50 311,50 312,50 313,52 314,52 315,54 316,44 317,39 318,38 319,40 320,41 321,40 322,39 323,40 324,39 325,39 326,38 327,38 328,40 329,40 330,38 331,36 332,39 333,50 334,50 335,51 336,52 337,39 338,43 339,52 340,39 341,51 342,38 343,38 344,40 345,40 346,39 347,39 348,39 349,41 350,40 351,39 352,39 353,39 354,38 355,36 356,36 357,42 358,40 359,38 360,38 361,38 362,38 363,37 364,39 365,44 366,37 367,39 368,38 369,14 370,59 371,79 372,78 373,73 374,79 375,79 376,61 377,78 378,78 379,74 380,79 381,79 382,73 383,80 384,75 385,66 386,72 387,60 388,58 389,78 390,79 391,68 392,78 393,77 394,72 395,77 396,77 397,73 398,77 399,77 400,72 401,78 402,77 403,71 404,77 405,77 406,71 407,77 408,65 409,61 410,48 411,45 412,64 413,59 414,54 415,46 416,52 417,53 418,59 419,72 420,78 421,72 422,80 423,78 424,73 425,80 426,79 427,73 428,79 429,79 430,74 431,80 432,79 433,73 434,80 435,79 436,75 437,80 438,78 439,73 440,80 441,80 442,72 443,80 444,80 445,74 446,80 447,72 448,72 449,80 450,78 451,75 452,79 453,79 454,73 455,80 456,79 457,70 458,78 459,79 460,73 461,80 462,78 463,73 464,80 465,80 466,75 467,80 468,79 469,73 " />
	<!-- TotalWH -->
	<polyline style="fill:none;stroke:OrangeRed" points="79,14 80,14 81,15 82,15 83,16 84,16 85,17 86,17 87,18 88,18 89,18 90,18 91,20 92,20 93,20 94,21 95,21 96,21 97,21 98,22 99,22 100,22 101,23 102,23 103,23 104,24 105,24 106,24 107,24 108,24 109,24 110,25 111,25 112,25 113,25 114,26 115,26 116,26 117,26 118,26 119,26 120,26 121,27 122,27 123,27 124,27 125,28 126,28 127,28 128,28 129,28 130,28 131,29 132,29 133,29 134,29 135,29 136,29 137,30 138,30 139,30 140,30 141,30 142,31 143,31 144,31 145,31 146,31 147,31 148,32 149,32 150,32 151,32 152,32 153,33 154,33 155,33 156,33 157,33 158,33 159,34 160,34 161,34 162,34 163,34 164,35 165,35 166,35 167,35 168,35 169,36 170,36 171,36 172,36 173,36 174,36 175,37 176,37 177,37 178,37 179,37 180,38 181,38 182,38 183,38 184,38 185,38 186,39 187,39 188,39 189,39 190,39 191,40 192,40 193,40 194,40 195,40 196,40 197,41 198,41 199,41 200,41 201,41 202,41 203,42 204,42 205,42 206,42 207,43 208,43 209,43 210,43 211,43 212,43 213,44 214,44 215,44 216,44 217,44 218,45 219,45 220,45 221,45 222,45 223,46 224,46 225,46 226,46 227,46 228,46 229,47 230,47 231,47 232,47 233,47 234,47 235,48 236,48 237,48 238,48 239,48 240,49 241,49 242,49 243,50 244,50 245,50 246,50 247,51 248,51 249,51 250,51 251,52 252,52 253,52 254,52 255,53 256,53 257,53 258,53 259,53 260,54 261,54 262,55 263,55 264,55 265,56 266,56 267,57 268,57 269,58 270,58 271,58 272,59 273,59 274,60 275,60 276,60 277,61 278,61 279,61 280,62 281,62 282,62 283,62 284,62 285,63 286,63 287,63 288,63 289,63 290,64 291,64 292,64 293,64 294,64 295,64 296,65 297,65 298,65 299,65 300,66 301,66 302,66 303,67 304,67 305,68 306,68 307,68 308,69 309,69 310,70 311,70 312,71 313,71 314,71 315,72 316,72 317,73 318,73 319,74 320,74 321,75 322,75 323,76 324,76 325,77 326,77 327,78 328,78 329,79 330,79 331,80 332,80 333,81 334,81 335,82 336,82 337,83 338,83 339,83 340,84 341,84 342,85 343,85 344,86 345,86 346,87 347,87 348,88 349,88 350,89 351,89 352,90 353,91 354,91 355,91 356,92 357,93 358,93 359,93 360,94 361,95 362,95 363,96 364,96 365,97 366,97 367,98 368,98 369,99 370,99 371,100 372,100 373,100 374,100 375,101 376,101 377,101 378,101 379,101 380,101 381,102 382,102 383,102 384,102 385,102 386,103 387,103 388,103 389,103 390,104 391,104 392,104 393,104 394,105 395,105 396,105 397,105 398,105 399,106 400,106 401,106 402,106 403,106 404,107 405,107 406,107 407,107 408,107 409,108 410,108 411,108 412,109 413,109 414,109 415,110 416,110 417,111 418,111 419,111 420,112 421,112 422,112 423,112 424,112 425,113 426,113 427,113 428,113 429,113 430,113 431,114 432,114 433,114 434,114 435,114 436,115 437,115 438,115 439,115 440,115 441,116 442,116 443,116 444,116 445,116 446,116 447,117 448,117 449,117 450,117 451,117 452,118 453,118 454,118 455,118 456,118 457,118 458,119 459,119 460,119 461,119 462,119 463,119 464,120 465,120 466,120 467,120 468,121 469,121 " />
</svg>
